Jump_normalized_Motion_pl13
version=1
nRows=25
nColumns=43
inDegrees=yes
endheader
time		pelvis_tilt		pelvis_list		pelvis_rotation		pelvis_tx		pelvis_ty		pelvis_tz		hip_flexion_r		hip_adduction_r		hip_rotation_r		knee_angle_r		ankle_angle_r		subtalar_angle_r		mtp_angle_r		hip_flexion_l		hip_adduction_l		hip_rotation_l		knee_angle_l		ankle_angle_l		subtalar_angle_l		mtp_angle_l		lumbar_extension		lumbar_bending		lumbar_rotation		neck_flexion		neck_lateral_bending		neck_rotation		arm_flex_r		arm_add_r		arm_rot_r		elbow_flex_r		pro_sup_r		wrist_flex_r		wrist_dev_r		hand_finger_flex_r		arm_flex_l		arm_add_l		arm_rot_l		elbow_flex_l		pro_sup_l		wrist_flex_l		wrist_dev_l		hand_finger_flex_l		
0.185000		3.937087		-15.357555		88.653038		0.044295		1.772706		1.902228		83.873627		5.193073		-3.768105		-132.492402		31.438496		0.794239		6.733042		87.042293		-9.673859		0.895065		-135.951996		22.886178		-1.334223		16.694463		-59.135966		0.333922		3.791533		42.899706		-1.537294		2.527552		35.178487		-18.267716		-5.648022		67.778718		106.663801		-9.399332		-4.697464		32.492791		24.253876		-20.551156		-10.916886		69.652752		100.678721		-3.135767		0.068733		28.602559		
0.188384		3.986220		-15.552624		88.722623		0.044452		1.772908		1.900359		83.883237		5.184049		-3.862017		-132.447671		31.351960		0.768269		6.702103		86.999816		-9.712185		0.973054		-135.923146		22.887203		-1.312680		16.718201		-58.894683		0.395765		3.836399		42.997542		-1.559099		2.544926		36.041260		-18.149816		-5.530097		68.101987		106.706374		-9.354440		-4.734064		32.448759		25.238294		-20.556803		-10.820185		70.036474		100.709695		-3.124971		0.032844		28.527006		
0.191768		4.058772		-15.729128		88.813731		0.044555		1.773221		1.898444		83.852295		5.166597		-3.975959		-132.392370		31.256325		0.673122		6.667151		86.941891		-9.727681		1.086250		-135.894679		22.894461		-1.276607		16.750577		-58.664099		0.491170		3.904295		43.150440		-1.603517		2.573777		36.924431		-18.053861		-5.381081		68.416821		106.773998		-9.299238		-4.749955		32.394324		26.255663		-20.550423		-10.663766		70.422170		100.767627		-3.120088		0.015653		28.419077		
0.195152		4.146080		-15.883873		88.922704		0.044588		1.773590		1.896488		83.776418		5.141326		-4.124056		-132.338356		31.172899		0.391227		6.632962		86.868841		-9.720368		1.220392		-135.884619		22.932434		-1.136858		16.802934		-58.448654		0.617500		3.992326		43.354377		-1.687884		2.612386		37.837710		-18.024435		-5.167524		68.743512		106.899779		-9.239318		-4.692256		32.335907		27.322275		-20.565311		-10.412900		70.786633		100.864008		-3.144022		0.038029		28.237859		
0.198535		4.147910		-16.059853		88.964305		0.044670		1.773711		1.894569		83.764979		5.133417		-4.156335		-132.310712		31.134768		0.199757		6.621778		86.811839		-9.739577		1.254118		-135.888611		22.972163		-0.985575		16.833926		-58.152671		0.648723		4.012308		43.305597		-1.719778		2.625789		38.663368		-17.930349		-5.020611		69.153543		106.981722		-9.227468		-4.661158		32.327311		28.280540		-20.553010		-10.265007		71.290099		100.867074		-3.151996		-0.009632		28.138311		
0.201919		4.131534		-16.241388		88.996615		0.044716		1.773844		1.892641		83.762908		5.119562		-4.177458		-132.277205		31.071024		-0.032637		6.608263		86.759559		-9.754250		1.259858		-135.892427		23.026796		-0.780995		16.871380		-57.840351		0.666209		4.019119		43.279327		-1.745809		2.637925		39.504483		-17.859336		-4.844524		69.560983		107.097386		-9.218531		-4.586116		32.334268		29.249788		-20.562154		-10.066866		71.804288		100.864477		-3.148081		-0.046158		28.025499		
0.205303		4.001814		-16.461475		88.985299		0.044716		1.773937		1.890758		83.837027		5.082688		-4.101569		-132.263966		30.865098		-0.366020		6.585022		86.720523		-9.746005		1.144979		-135.887477		23.119873		-0.392614		16.929913		-57.480982		0.598470		3.931013		43.319683		-1.706499		2.636554		40.379303		-17.863624		-4.540462		69.996108		107.373975		-9.229036		-4.334323		32.444052		30.237259		-20.725251		-9.686063		72.357109		100.783743		-3.064365		-0.039223		27.888830		
0.208687		3.897224		-16.672519		88.974275		0.044746		1.774104		1.888824		83.872063		5.047968		-4.041004		-132.239741		30.674747		-0.482407		6.572097		86.675930		-9.758523		1.032281		-135.860500		23.139814		-0.195985		16.964879		-57.124362		0.532351		3.850279		43.247392		-1.665794		2.636572		41.223276		-17.778051		-4.357574		70.466474		107.573992		-9.266071		-4.208594		32.563543		31.181815		-20.811523		-9.446215		72.977366		100.630252		-2.981749		-0.089005		27.825747		
0.212071		3.771676		-16.891639		88.958968		0.044788		1.774399		1.886892		83.909927		5.009506		-3.980343		-132.193858		30.461824		-0.587643		6.559209		86.632062		-9.767002		0.896747		-135.812101		23.146410		-0.003962		17.002301		-56.761290		0.460098		3.757757		43.191227		-1.620117		2.636453		42.084284		-17.690654		-4.152847		70.944120		107.802941		-9.307907		-4.066595		32.710596		32.143067		-20.911662		-9.176523		73.605549		100.445539		-2.884447		-0.131714		27.764826		
0.215455		3.610421		-17.135654		88.938747		0.044756		1.774853		1.884946		83.961592		4.950283		-3.874240		-132.147599		30.108336		-0.641518		6.539116		86.591042		-9.748922		0.716073		-135.737867		23.063743		0.143492		17.048928		-56.400739		0.368992		3.621425		43.287840		-1.539751		2.628027		43.022519		-17.680408		-3.814985		71.425132		108.163565		-9.346386		-3.860101		32.966348		33.169369		-21.158050		-8.731837		74.229540		100.150711		-2.704999		-0.130456		27.730634		
0.218838		3.346571		-17.353620		88.873546		0.044783		1.775487		1.882938		83.961010		4.879942		-3.692084		-132.082540		29.855842		-0.779315		6.597153		86.467358		-9.720246		0.406699		-135.607421		22.925600		0.115051		17.169240		-56.057265		0.199972		3.422617		43.250147		-1.525473		2.616967		43.902840		-17.479851		-3.684368		72.004977		108.711102		-9.668630		-3.483879		33.607817		34.205656		-21.346639		-8.306190		74.841053		99.323524		-2.656610		-0.031335		27.629908		
0.222222		3.158550		-17.589470		88.830868		0.044737		1.776211		1.880904		83.965680		4.823526		-3.552807		-131.996122		29.562905		-0.824003		6.662589		86.382190		-9.697618		0.182576		-135.491010		22.780567		0.077183		17.294736		-55.714540		0.092293		3.280908		43.350830		-1.498073		2.593512		44.857776		-17.415519		-3.366749		72.546512		109.188964		-9.890583		-3.229856		34.278117		35.278053		-21.643211		-7.733701		75.466124		98.673364		-2.582624		0.079184		27.557273		
0.225606		3.131373		-17.830655		88.843927		0.044695		1.777019		1.878777		83.919901		4.787510		-3.592542		-131.838754		29.444357		-0.843913		6.673048		86.325397		-9.695069		0.162436		-135.375007		22.695986		0.107591		17.317351		-55.343599		0.100183		3.254576		43.292674		-1.498920		2.595261		45.772584		-17.302058		-3.128033		73.032368		109.253293		-9.894693		-3.303393		34.387287		36.307896		-21.693192		-7.467587		76.084547		98.628816		-2.515259		0.021138		27.584319		
0.228990		3.078516		-18.067371		88.868531		0.044600		1.777917		1.876594		83.875425		4.720712		-3.605413		-131.687773		29.257478		-0.956674		6.691528		86.244212		-9.661763		0.110584		-135.247026		22.554795		0.160813		17.349788		-54.985364		0.101960		3.195186		43.331234		-1.492686		2.592283		46.724735		-17.254283		-2.801249		73.525733		109.387527		-9.923809		-3.322892		34.546472		37.400448		-21.865803		-7.036186		76.684990		98.567800		-2.394865		0.012631		27.649907		
0.232374		2.976689		-18.271301		88.914201		0.044517		1.778898		1.874342		83.810876		4.618917		-3.594227		-131.544464		29.023924		-1.220319		6.736873		86.110293		-9.601217		0.010301		-135.103385		22.397366		0.238453		17.390546		-54.656232		0.100467		3.110983		43.410519		-1.493387		2.580799		47.682469		-17.242055		-2.422900		74.044975		109.586082		-10.016261		-3.262049		34.742441		38.557512		-22.127196		-6.450510		77.261965		98.477760		-2.244574		0.063111		27.760442		
0.235758		2.852110		-18.435967		88.946354		0.044340		1.779978		1.871962		83.693864		4.501178		-3.577945		-131.388833		28.768045		-1.589492		6.861036		85.901928		-9.545255		-0.130215		-134.939593		22.280628		0.305004		17.453907		-54.356563		0.086121		3.017132		43.379958		-1.494657		2.542243		48.581271		-17.202122		-2.110854		74.644324		109.774846		-10.247476		-3.116245		35.030984		39.720387		-22.317501		-5.890295		77.849049		98.264535		-2.188829		0.140454		27.897812		
0.239141		2.749804		-18.622634		88.985276		0.044258		1.781164		1.869502		83.561111		4.386249		-3.559164		-131.202847		28.511471		-1.947484		7.070554		85.673592		-9.505628		-0.276255		-134.749536		22.199849		0.365685		17.532742		-54.035215		0.063296		2.940549		43.360213		-1.506935		2.491470		49.504156		-17.234438		-1.736992		75.249682		109.894731		-10.509744		-2.921117		35.392514		40.905186		-22.539158		-5.293868		78.417019		98.019350		-2.195512		0.238227		28.055859		
0.242525		2.663330		-18.819889		89.014667		0.044156		1.782324		1.866976		83.427580		4.283165		-3.549798		-131.009757		28.292275		-2.237601		7.346324		85.462876		-9.481680		-0.400111		-134.572139		22.140668		0.419413		17.616326		-53.690177		0.056047		2.878985		43.306037		-1.521568		2.441368		50.419281		-17.292615		-1.317251		75.869382		109.858803		-10.754591		-2.732574		35.759485		42.069859		-22.724989		-4.736489		78.989514		97.781253		-2.263069		0.310921		28.207940		
0.245909		2.601362		-19.049896		89.043710		0.044047		1.783551		1.864438		83.298213		4.212937		-3.525975		-130.795152		28.117725		-2.464146		7.654606		85.293218		-9.476929		-0.501443		-134.365053		22.092451		0.471249		17.696295		-53.310496		0.064456		2.834144		43.261714		-1.536385		2.394296		51.369575		-17.413222		-0.807283		76.472338		109.658381		-10.930068		-2.565893		36.064460		43.240752		-22.901182		-4.185914		79.553753		97.593538		-2.342982		0.359088		28.343099		
0.249293		2.555847		-19.304549		89.076869		0.043992		1.784841		1.861886		83.174937		4.175900		-3.485502		-130.561202		27.983151		-2.642664		7.944001		85.139686		-9.490330		-0.575223		-134.135086		22.046908		0.523856		17.765235		-52.904421		0.080293		2.798123		43.215789		-1.551822		2.352274		52.337656		-17.571949		-0.258418		77.059117		109.376621		-11.033513		-2.431845		36.275573		44.418792		-23.066168		-3.664604		80.113787		97.456400		-2.406609		0.387269		28.453401		
0.252677		2.514323		-19.560275		89.094998		0.043976		1.786218		1.859305		83.030287		4.156727		-3.433817		-130.316492		27.862454		-2.798352		8.262917		84.979195		-9.503172		-0.633210		-133.893594		21.998399		0.584528		17.835998		-52.498046		0.084778		2.779249		43.169643		-1.568787		2.304574		53.328640		-17.789233		0.350980		77.661027		108.965600		-11.114939		-2.284854		36.402210		45.624182		-23.236728		-3.113701		80.657012		97.329759		-2.477615		0.420798		28.557929		
0.256061		2.431656		-19.716056		89.085549		0.044044		1.787882		1.856588		82.753308		4.139772		-3.346485		-130.055402		27.619119		-3.051571		9.156651		84.662117		-9.515616		-0.729096		-133.613816		21.941866		0.667040		18.029533		-52.201182		0.021503		2.814018		43.067938		-1.576041		2.165270		54.283826		-18.173465		1.088318		78.406418		107.707883		-11.616583		-1.788246		36.514149		46.943677		-23.387833		-2.339539		81.146860		96.884650		-2.895751		0.550290		28.790934		
0.259444		2.441132		-20.052157		89.076683		0.044100		1.789303		1.854048		82.668142		4.156612		-3.321058		-129.776365		27.603818		-3.042621		9.338078		84.578976		-9.543125		-0.712406		-133.362683		21.908837		0.712466		18.070805		-51.703453		0.049439		2.806303		43.068781		-1.605566		2.177026		55.382544		-18.308693		1.670094		78.858336		107.670391		-11.528241		-1.820225		36.534748		48.139608		-23.524466		-1.926720		81.641713		96.908350		-2.828903		0.544102		28.882239		
0.262828		2.434624		-20.312439		89.076898		0.044142		1.790883		1.851404		82.495035		4.144695		-3.284106		-129.511554		27.537033		-3.021627		9.562545		84.384397		-9.551159		-0.717648		-133.108968		21.843876		0.793922		18.123422		-51.284151		0.067460		2.804062		43.015260		-1.650338		2.181221		56.472940		-18.520998		2.262002		79.380301		107.539342		-11.482892		-1.780167		36.494678		49.405471		-23.685625		-1.406944		82.115234		96.907594		-2.770791		0.581891		28.992689		
0.266212		2.418167		-20.539771		89.083028		0.044200		1.792643		1.848680		82.261743		4.136349		-3.224678		-129.225597		27.456526		-2.965602		9.787412		84.120504		-9.563793		-0.736528		-132.804829		21.788894		0.886522		18.178357		-50.896488		0.082114		2.805340		42.938340		-1.694635		2.165925		57.560410		-18.704692		2.782867		79.900025		107.386628		-11.467647		-1.677891		36.409502		50.711068		-23.805439		-0.873646		82.550868		96.876750		-2.736932		0.646248		29.096309		
